<svg width="24" height="24" viewBox="0 0 24 24" fill="none" xmlns="http://www.w3.org/2000/svg">
    <path
        d="M16.0004 9V6C16.0004 3.79086 14.2095 2 12.0004 2C9.79123 2 8.00037 3.79086 8.00037 6V9M3.59237 10.352L2.99237 16.752C2.82178 18.5717 2.73648 19.4815 3.03842 20.1843C3.30367 20.8016 3.76849 21.3121 4.35839 21.6338C5.0299 22 5.94374 22 7.77142 22H16.2293C18.057 22 18.9708 22 19.6423 21.6338C20.2322 21.3121 20.6971 20.8016 20.9623 20.1843C21.2643 19.4815 21.179 18.5717 21.0084 16.752L20.4084 10.352C20.2643 8.81535 20.1923 8.04704 19.8467 7.46616C19.5424 6.95458 19.0927 6.54511 18.555 6.28984C17.9444 6 17.1727 6 15.6293 6L8.37142 6C6.82806 6 6.05638 6 5.44579 6.28984C4.90803 6.54511 4.45838 6.95458 4.15403 7.46616C3.80846 8.04704 3.73643 8.81534 3.59237 10.352Z"
        stroke="#525252" stroke-width="2" stroke-linecap="round" stroke-linejoin="round" />
    <circle cx="18" cy="10" r="6" fill="black" />
    <path
        d="M19.89 7.225C19.89 7.35167 19.85 7.45667 19.77 7.54C19.69 7.62 19.555 7.66 19.365 7.66H17.115L16.785 9.54C17.1583 9.46 17.5033 9.42 17.82 9.42C18.1933 9.42 18.5217 9.475 18.805 9.585C19.0917 9.695 19.3317 9.84667 19.525 10.04C19.7183 10.2333 19.8633 10.4617 19.96 10.725C20.06 10.9883 20.11 11.275 20.11 11.585C20.11 11.965 20.0433 12.3083 19.91 12.615C19.7767 12.9217 19.5933 13.185 19.36 13.405C19.13 13.6217 18.8583 13.7883 18.545 13.905C18.2317 14.0217 17.8933 14.08 17.53 14.08C17.32 14.08 17.1183 14.0583 16.925 14.015C16.7317 13.975 16.5517 13.92 16.385 13.85C16.2183 13.78 16.0633 13.7 15.92 13.61C15.7767 13.52 15.65 13.425 15.54 13.325L15.81 12.945C15.87 12.8583 15.95 12.815 16.05 12.815C16.1133 12.815 16.1867 12.8417 16.27 12.895C16.3567 12.945 16.46 13.0017 16.58 13.065C16.7 13.1283 16.84 13.1867 17 13.24C17.1633 13.29 17.3567 13.315 17.58 13.315C17.83 13.315 18.055 13.275 18.255 13.195C18.455 13.115 18.625 13.0017 18.765 12.855C18.9083 12.705 19.0183 12.5267 19.095 12.32C19.1717 12.1133 19.21 11.8817 19.21 11.625C19.21 11.4017 19.1767 11.2 19.11 11.02C19.0467 10.84 18.9483 10.6867 18.815 10.56C18.685 10.4333 18.5217 10.335 18.325 10.265C18.1283 10.195 17.8983 10.16 17.635 10.16C17.455 10.16 17.2683 10.175 17.075 10.205C16.8817 10.235 16.6817 10.2833 16.475 10.35L15.915 10.185L16.495 6.835H19.89V7.225Z"
        fill="white" />
</svg>